<?xml version="1.0" encoding="utf-8"?>
<!-- Generator: Adobe Illustrator 26.0.3, SVG Export Plug-In . SVG Version: 6.00 Build 0)  -->
<svg version="1.0" id="Layer_1" xmlns="http://www.w3.org/2000/svg" xmlns:xlink="http://www.w3.org/1999/xlink" x="0px" y="0px"
	 viewBox="0 0 247.3 163.7" style="enable-background:new 0 0 247.3 163.7;" xml:space="preserve">
<style type="text/css">
	.st0{fill:#85BBE6;}
	.st1{fill:#0072BC;}
</style>
<path class="st0" d="M160.5,55.9c1.8-0.8,3.7-1.1,5.7-0.8c1.9,0.1,3.6,0.9,4.9,2.3c1.5,1.8,1.6,4.3,1.7,6.6h-5.1
	c0.1-1.4-0.2-2.7-0.7-4c-0.8-1.2-2.3-1.6-3.5-1c-0.7,0.4-1.2,1.1-1.4,1.9c-0.4,1.5-0.6,3.1-0.6,4.6c-0.1,2.7,0,5.4,0.2,8.1
	c0.1,1.1,0.4,2.1,1.1,3c0.7,0.7,1.8,1,2.8,0.7c0.8-0.2,1.5-0.9,1.7-1.7c0.5-1.5,0.7-3,0.6-4.6h5.1c0,2.6-0.2,5.3-1.8,7.5
	c-1.3,1.6-3.3,2.6-5.4,2.6c-2.2,0.3-4.4-0.2-6.2-1.4c-1.5-1.2-2.4-2.9-2.7-4.8c-0.4-2.4-0.6-4.8-0.5-7.2c-0.1-2.7,0.2-5.5,1-8.1
	C157.8,58,158.9,56.7,160.5,55.9 M127.5,55.4h6.3c1.8,6.7,3.5,13.3,5.3,20c1.8-6.7,3.5-13.3,5.3-20c2.1,0,4.2,0,6.3,0
	c2.2,8.4,4.5,16.9,6.7,25.3c-1.8,0-3.5,0-5.3,0l-1.2-5.3h-6.8c-0.4,1.8-0.8,3.6-1.2,5.4c-2.6,0-5.2,0-7.8,0l-1.2-5.4
	c-2.3,0-4.5,0-6.8,0c-0.4,1.8-0.8,3.6-1.2,5.3h-5.3C123,72.2,125.3,63.8,127.5,55.4 M130.3,61.3c-0.7,3.3-1.4,6.6-2.1,9.9h5
	c-0.8-3.8-1.6-7.7-2.5-11.5C130.5,60.2,130.4,60.7,130.3,61.3 M147.5,59.7c-0.9,3.8-1.6,7.7-2.5,11.5c1.7,0,3.3,0,5,0
	c-0.5-2.3-1-4.5-1.5-6.8C148.2,62.8,148,61.2,147.5,59.7 M173.9,55.4h5.1c0,3.2,0,6.5,0,9.7c2,0,4,0,6,0c0-3.2,0-6.5,0-9.7
	c1.7,0,3.4,0,5.1,0v25.3c-1.7,0-3.4,0-5.1,0c0-3.8,0-7.5,0-11.2h-6v11.2c-1.7,0-3.4,0-5.1,0L173.9,55.4 M191.2,55.4
	c3.9,0,7.9,0,11.8,0c0.8,0,1.6,0,2.4,0c0,1.4,0,2.8,0,4.1h-9.1v6h8.5v4.2h-8.5v6.8h9.3v4.2c-4.8,0-9.7,0-14.5,0c0-8.4,0-16.9,0-25.3
	 M206.4,55.3c2,0,3.9,0,5.9,0c2.1,5.8,4.1,11.6,6.3,17.4c0.1-5.8,0-11.6,0-17.4h4.7c0,8.4,0,16.9,0,25.3h-5.8L211.5,64
	c-0.1-0.4-0.3-0.8-0.4-1.1c0,5.9,0,11.9,0,17.8c-1.6,0-3.1,0-4.7,0L206.4,55.3 M171.6,84.1c1.9-1.3,4.2-1.8,6.5-1.5
	c3.5-0.2,6.6,2.5,6.8,6c0,0.5,0,0.9-0.1,1.4h-4.9c0.1-1.1-0.2-2.1-0.9-3c-0.7-0.7-1.7-0.9-2.7-0.7c-0.8,0.1-1.5,0.6-1.9,1.4
	c-0.3,0.9-0.4,1.9-0.1,2.8c0.3,0.9,1,1.6,1.9,1.9c1.8,0.8,3.6,1.5,5.3,2.3c1.7,0.7,3,2.1,3.6,3.8c0.5,1.8,0.4,3.7-0.1,5.5
	c-0.6,1.8-1.9,3.2-3.7,3.9c-2.1,0.7-4.3,1-6.5,0.7c-1.9-0.1-3.7-1-4.9-2.5c-1.2-1.7-1.3-3.8-1.3-5.8h5.1c-0.1,1.2,0.1,2.5,0.7,3.6
	c0.8,0.9,2,1.3,3.1,1.1c1.2-0.1,2.2-0.9,2.5-2.1c0.4-1.2,0.1-2.6-0.8-3.5c-1-0.8-2.1-1.4-3.4-1.7c-2-0.5-3.8-1.6-5.3-3
	c-1.3-1.6-1.8-3.7-1.5-5.7C169.3,87.1,170.2,85.3,171.6,84.1 M77.2,98.7c0-5.2,0-10.4,0-15.7c1.7,0,3.4,0,5.1,0c0,6,0,12,0,18.1
	c0.1,1.3,0.2,2.8,1.4,3.6c1.3,0.7,2.9,0.5,3.8-0.7c0.5-0.9,0.8-2,0.7-3c0-6,0-11.9,0-17.9c1.7,0,3.4,0,5.1,0V101
	c0.1,2.2-0.7,4.4-2.3,6c-1.7,1.5-4.2,1.9-6.4,1.8c-2,0-3.8-0.6-5.3-1.9c-1-1-1.6-2.3-1.8-3.6C77.2,101.7,77.1,100.2,77.2,98.7
	 M94.5,83c1.9,0,3.9,0,5.9,0c1.9,5.5,3.9,10.9,5.8,16.4c0.1,0.3,0.2,0.7,0.4,1c0-5.8,0-11.6,0-17.4c1.6,0,3.1,0,4.7,0
	c0,8.4,0,16.8,0,25.2c-1.9,0-3.8,0-5.8,0l-5.8-16.5c-0.1-0.4-0.3-0.8-0.5-1.2c0,5.9,0,11.8,0,17.8h-4.6L94.5,83 M112.7,108.2
	c0-8.4,0-16.8,0-25.2c1.7,0,3.4,0,5.1,0c0,8.4,0,16.8,0,25.2C116,108.2,114.3,108.2,112.7,108.2 M118.1,83c1.8,0,3.6,0,5.4,0
	c1.2,6.2,2.4,12.5,3.6,18.7c0.1-0.1,0.1-0.3,0.2-0.5c1.2-6.1,2.4-12.2,3.7-18.3c1.8,0,3.5,0,5.3,0c-1.9,8.4-3.9,16.8-5.8,25.2h-6
	c-0.2,0-0.5,0.1-0.5-0.2L118.1,83 M136.6,108.2V83c4.7,0,9.4,0,14.1,0c0,1.4,0,2.8,0,4.2h-9c0,2,0,4,0,6h8.5v4.2h-8.5v6.8
	c3.1,0,6.2,0,9.4,0c0,1.4,0,2.8,0,4.1C146.3,108.2,141.5,108.2,136.6,108.2 M152.3,108.2c0-8.4,0-16.8,0-25.2h7.4
	c1.8-0.2,3.6,0,5.4,0.6c1.4,0.6,2.5,1.8,3,3.2c0.5,1.5,0.5,3.2,0.2,4.8c-0.3,1.4-1.1,2.7-2.4,3.5c-0.5,0.3-1.1,0.5-1.7,0.7
	c1.3,0,2.4,0.7,3.2,1.7c0.7,1.6,1,3.3,0.9,5c0,1.5,0.1,3.1,0.4,4.6c0.2,0.4,0.5,0.8,0.8,1.2c-1.8,0.1-3.7,0-5.5,0.1
	c-0.4-0.6-0.6-1.3-0.6-2c-0.1-1.4-0.1-2.8-0.1-4.2c0.1-1.2-0.1-2.3-0.6-3.4c-0.5-0.7-1.4-1.1-2.3-1.1h-2.9c0,3.6,0,7.1,0,10.7
	C155.6,108.3,154,108.3,152.3,108.2 M157.3,86.8v7.3c1.5-0.1,3,0.2,4.4-0.4c1-0.6,1.6-1.6,1.6-2.8c0.3-1.3-0.3-2.7-1.4-3.6
	C160.5,86.5,158.9,86.9,157.3,86.8 M186.3,83.1c1.7,0,3.4,0,5.1,0v25.2c-1.7,0-3.4,0-5.1,0V83.1 M192,83c6.3,0,12.6,0,18.8,0
	c1.1,3.3,2.2,6.6,3.4,9.8c1.2-3.3,2.4-6.6,3.6-9.8c1.8,0,3.7,0,5.5,0c-2.2,5.1-4.4,10.2-6.5,15.3c-0.1,3.3,0,6.6,0,10h-5.1
	c0-3.3,0-6.6,0-10c-1.6-3.7-3.2-7.4-4.7-11.1h-4.3c0,7,0,14,0,21.1c-1.7,0-3.4,0-5.1,0c0-7,0-14,0-21.1h-5.5L192,83L192,83z"/>
<path class="st1" d="M24,55.4c0.5-0.1,1.1-0.1,1.6-0.1h12.3c2.3,0,4.6,1,6.2,2.7c1.5,1.5,2.3,3.5,2.2,5.6c-0.1,2.2-0.9,4.3-2.5,5.9
	c1.5,3.7,3.1,7.4,4.6,11.1c-2.8,0-5.6,0-8.5,0c-0.3-0.4-0.5-0.8-0.6-1.2c-1.7-4-3.4-8-5.1-12c0.6,0,1.2,0,1.8,0
	c1.7-0.1,3-1.6,2.8-3.3c-0.1-1.6-1.5-2.9-3.1-2.8c-1.1,0-2.2,0-3.3,0v19.4h-7.6c-0.3,0-0.6,0-0.9,0V55.4 M44.2,55.4
	c2.9,0,5.8,0,8.7,0c1.8,4.3,3.6,8.7,5.5,13c-0.1-0.6-0.2-1.2-0.3-1.8c0-3.8,0-7.5,0-11.2h8.3c0.2,0,0.4,0,0.4,0.2
	c1.8,4.3,3.6,8.5,5.4,12.7c0-0.6-0.2-1.2-0.2-1.8V55.4h34.1v9.1h5.9v-9.1h8.4v25.3c-2.8,0-5.6,0-8.4,0V70.4h-5.9v10.3
	c-2.8,0-5.6,0-8.4,0V61.2h-5.9v19.5c-2.8,0-5.6,0-8.4,0V61.2h-6v19.5h-8.6c-1.5-3.6-3-7.1-4.5-10.7c-0.3-0.8-0.4-1.7-0.7-2.5
	c0,4.4,0,8.8,0,13.2c-2.9,0-5.8,0-8.7,0C51.4,72.2,47.8,63.8,44.2,55.4L44.2,55.4z"/>
</svg>
